<svg xmlns="http://www.w3.org/2000/svg" xmlns:xlink="http://www.w3.org/1999/xlink" zoomAndPan="magnify" preserveAspectRatio="xMidYMid meet" version="1.0" viewBox="8.3 15.39 358.08 344.21"><defs><clipPath id="4a9a4cf979"><path d="M 67 49 L 308 49 L 308 326 L 67 326 Z M 67 49 " clip-rule="nonzero"/></clipPath><clipPath id="bc21251da3"><path d="M 126.242188 15.386719 L 366.378906 151.441406 L 248.4375 359.601562 L 8.300781 223.546875 Z M 126.242188 15.386719 " clip-rule="nonzero"/></clipPath><clipPath id="e062afa1c5"><path d="M 126.242188 15.386719 L 366.378906 151.441406 L 248.4375 359.601562 L 8.300781 223.546875 Z M 126.242188 15.386719 " clip-rule="nonzero"/></clipPath><clipPath id="757e98fecf"><path d="M 117.1875 99.46875 L 258 99.46875 L 258 275.71875 L 117.1875 275.71875 Z M 117.1875 99.46875 " clip-rule="nonzero"/></clipPath></defs><g clip-path="url(#4a9a4cf979)"><g clip-path="url(#bc21251da3)"><g clip-path="url(#e062afa1c5)"><path fill="#0a192f" d="M 68.375 257.582031 L 67.347656 119.507812 L 186.316406 49.421875 L 306.304688 117.40625 L 307.332031 255.480469 L 188.363281 325.566406 Z M 68.375 257.582031 " fill-opacity="1" fill-rule="nonzero"/></g></g></g><g clip-path="url(#757e98fecf)"><path fill="#64ffda" d="M 254.035156 205.621094 C 250.964844 200.132812 246.679688 195.738281 241.554688 192.136719 C 236.078125 188.300781 230.046875 185.558594 223.871094 183.085938 C 216.367188 180.09375 208.644531 177.71875 200.945312 175.257812 C 193.605469 172.917969 186.300781 170.480469 179.257812 167.324219 C 174.007812 164.957031 168.917969 162.308594 164.359375 158.757812 C 160.789062 155.976562 157.6875 152.792969 155.652344 148.695312 C 152.449219 142.234375 152 135.617188 154.652344 128.867188 C 156.566406 123.984375 159.886719 120.160156 163.894531 116.871094 C 166.835938 114.46875 170.285156 113.105469 173.855469 112 C 178.957031 110.417969 184.195312 109.539062 189.523438 109.183594 C 193.523438 108.910156 197.507812 108.921875 201.503906 109.328125 C 204.777344 109.648438 208.011719 110.207031 211.203125 110.988281 C 217.1875 112.460938 222.753906 114.863281 227.761719 118.484375 C 228.144531 118.757812 228.25 118.972656 228.011719 119.449219 C 226.609375 122.179688 225.527344 125.042969 224.753906 128.023438 C 223.480469 132.929688 222.875 137.898438 223.683594 142.957031 C 224.027344 145.082031 224.597656 147.140625 225.929688 148.886719 C 227.167969 150.523438 228.835938 151.191406 230.796875 150.585938 C 232.261719 150.132812 233.6875 149.503906 235.054688 148.800781 C 237.386719 147.601562 239.636719 146.261719 241.492188 144.371094 C 247.324219 138.417969 248.394531 129.25 244.132812 121.917969 C 242.445312 119.007812 240.292969 116.5 237.675781 114.386719 C 237.402344 114.171875 237.234375 113.996094 237.449219 113.613281 C 239.246094 110.503906 241.410156 107.710938 244.097656 105.3125 C 244.742188 104.742188 245.417969 104.609375 246.179688 104.859375 C 246.714844 105.039062 247.203125 105.015625 247.679688 104.765625 C 249.296875 103.933594 250.929688 103.101562 252.511719 102.210938 C 253.261719 101.78125 253.949219 101.226562 254.617188 100.679688 C 255.070312 100.308594 255.019531 99.941406 254.449219 99.761719 C 253.949219 99.609375 253.390625 99.503906 252.878906 99.585938 C 251.902344 99.75 250.929688 99.953125 250.011719 100.320312 C 243.898438 102.78125 238.386719 106.179688 233.855469 111.011719 C 233.558594 111.335938 233.34375 111.371094 232.949219 111.144531 C 224.847656 106.355469 215.9375 104.382812 206.65625 103.800781 C 201.363281 103.46875 196.089844 103.800781 190.84375 104.632812 C 187.382812 105.179688 183.957031 105.90625 180.613281 106.960938 C 172.546875 109.492188 165.167969 113.367188 158.363281 118.34375 C 154.402344 121.242188 150.855469 124.578125 148.25 128.773438 C 142.886719 137.410156 142.683594 146.222656 147.679688 155.085938 C 149.855469 158.945312 153.058594 161.90625 156.578125 164.53125 C 161.625 168.273438 167.214844 171.027344 172.960938 173.488281 C 178.828125 175.996094 184.871094 178.039062 190.941406 179.984375 C 197.101562 181.96875 203.265625 183.953125 209.382812 186.054688 C 215.792969 188.265625 222.050781 190.84375 227.976562 194.15625 C 233.367188 197.175781 238.171875 200.90625 242.039062 205.765625 C 247.488281 212.605469 249.761719 220.304688 248.324219 228.976562 C 246.5625 239.527344 241.660156 248.328125 233.460938 255.277344 C 229.261719 258.84375 224.480469 261.382812 219.421875 263.464844 C 214.699219 265.410156 209.808594 266.847656 204.824219 268 C 200.148438 269.082031 195.414062 269.796875 190.628906 270.09375 C 185.714844 270.402344 180.816406 270.246094 175.914062 269.6875 C 171.914062 269.238281 167.953125 268.605469 164.039062 267.644531 C 157.386719 266.015625 151.070312 263.511719 145.027344 260.304688 C 140.648438 257.988281 136.613281 255.171875 133.164062 251.570312 C 128.976562 247.1875 126.703125 241.960938 126.3125 235.925781 C 125.988281 230.972656 126.90625 226.183594 128.394531 221.503906 C 130.09375 216.136719 132.722656 211.195312 135.699219 206.429688 C 138.269531 202.320312 140.875 198.222656 143.457031 194.121094 C 143.632812 193.835938 143.789062 193.515625 143.945312 193.21875 C 143.894531 193.160156 143.847656 193.089844 143.8125 193.03125 C 143.398438 193.160156 142.945312 193.21875 142.5625 193.421875 C 140.816406 194.347656 139.078125 195.296875 137.351562 196.261719 C 136.402344 196.796875 135.664062 197.566406 135.054688 198.457031 C 133.949219 200.097656 132.820312 201.726562 131.75 203.386719 C 128.808594 207.960938 125.765625 212.476562 123.277344 217.335938 C 120.125 223.511719 117.960938 229.976562 117.507812 236.949219 C 117.1875 241.972656 118.066406 246.761719 120.492188 251.214844 C 122.5625 255.027344 125.5625 258.035156 128.964844 260.648438 C 135.554688 265.695312 143.0625 268.964844 150.878906 271.53125 C 155.566406 273.074219 160.398438 274.082031 165.300781 274.628906 C 168.621094 275 171.949219 275.34375 175.292969 275.472656 C 180.96875 275.6875 186.609375 275.1875 192.199219 274.214844 C 197.53125 273.289062 202.753906 271.96875 207.882812 270.269531 C 214.558594 268.0625 220.898438 265.136719 227.027344 261.691406 C 232.988281 258.34375 238.625 254.578125 243.585938 249.835938 C 251.117188 242.636719 255.652344 233.90625 257.199219 223.632812 C 258.1875 217.300781 257.1875 211.253906 254.035156 205.621094 Z M 232.605469 127.824219 C 232.773438 126.765625 233.011719 125.730469 233.222656 124.6875 C 233.261719 124.496094 233.332031 124.320312 233.4375 123.949219 C 235.914062 127.265625 237.613281 130.699219 237.925781 134.726562 C 238.199219 138.300781 237.304688 141.601562 235.605469 144.859375 C 235.257812 144.511719 234.960938 144.265625 234.710938 143.96875 C 233.808594 142.863281 233.296875 141.542969 232.925781 140.191406 C 231.820312 136.089844 231.976562 131.96875 232.605469 127.824219 Z M 232.605469 127.824219 " fill-opacity="1" fill-rule="nonzero"/></g></svg>